<?xml version="1.0" standalone="no"?>
<!DOCTYPE svg PUBLIC "-//W3C//DTD SVG 20010904//EN"
 "http://www.w3.org/TR/2001/REC-SVG-20010904/DTD/svg10.dtd">
<svg version="1.0" xmlns="http://www.w3.org/2000/svg"
 width="512.000000pt" height="512.000000pt" viewBox="0 0 512.000000 512.000000"
 preserveAspectRatio="xMidYMid meet">

<g transform="translate(0.000000,512.000000) scale(0.100000,-0.100000)"
fill="#000000" stroke="none">
<path d="M2370 5113 c-371 -35 -653 -114 -961 -269 -245 -122 -444 -268 -655
-478 -224 -225 -366 -423 -500 -701 -158 -326 -237 -650 -251 -1020 -15 -426
73 -832 263 -1214 133 -269 271 -459 488 -677 221 -220 412 -357 681 -489 188
-92 309 -137 500 -185 480 -121 962 -103 1435 52 158 51 476 199 466 216 -36
65 -310 538 -312 541 -2 2 -61 -23 -131 -57 -296 -140 -588 -202 -903 -189
-583 24 -1122 306 -1463 765 -575 775 -501 1832 177 2508 598 595 1501 733
2245 343 538 -282 895 -777 1007 -1394 22 -121 32 -579 14 -667 -22 -112 -83
-198 -174 -246 -43 -22 -64 -26 -136 -26 -72 0 -93 4 -136 26 -75 39 -107 70
-145 140 l-34 63 -3 683 -3 682 -219 0 -218 0 -84 63 c-146 110 -332 193 -521
234 -114 25 -369 24 -487 -1 -259 -56 -463 -167 -651 -355 -188 -188 -299
-392 -355 -651 -26 -119 -26 -381 0 -500 55 -257 169 -466 355 -651 185 -186
395 -300 651 -355 119 -25 372 -26 490 -1 218 47 425 148 591 288 l37 31 68
-67 c120 -117 270 -202 435 -247 118 -32 346 -32 464 0 342 93 598 356 692
711 24 89 26 117 31 362 7 444 -31 710 -149 1043 -47 133 -163 373 -235 486
-197 310 -472 591 -774 791 -130 87 -410 226 -550 274 -204 70 -413 115 -625
135 -102 9 -333 11 -415 3z m325 -1928 c141 -29 291 -126 377 -242 191 -259
165 -606 -62 -833 -253 -252 -649 -253 -900 -1 -199 200 -245 487 -120 737
132 261 418 399 705 339z"/>
</g>
</svg>
