<?xml version="1.0" standalone="no"?>
<!DOCTYPE svg PUBLIC "-//W3C//DTD SVG 20010904//EN"
 "http://www.w3.org/TR/2001/REC-SVG-20010904/DTD/svg10.dtd">
<svg version="1.0" xmlns="http://www.w3.org/2000/svg"
 width="512.000000pt" height="512.000000pt" viewBox="0 0 512.000000 512.000000"
 preserveAspectRatio="xMidYMid meet">

<g transform="translate(0.000000,512.000000) scale(0.100000,-0.100000)"
fill="#000000" stroke="none">
<path d="M1013 3398 c-11 -5 -29 -25 -38 -42 -39 -72 -71 -35 768 -874 l772
-772 45 0 45 0 772 772 c839 838 807 802 768 873 -20 38 -52 55 -103 55 -35 0
-64 -27 -759 -722 l-723 -723 -723 723 c-719 719 -723 722 -762 721 -22 0 -50
-5 -62 -11z"/>
</g>
</svg>
