<?xml version="1.0" standalone="no"?>
<!DOCTYPE svg PUBLIC "-//W3C//DTD SVG 20010904//EN"
 "http://www.w3.org/TR/2001/REC-SVG-20010904/DTD/svg10.dtd">
<svg version="1.0" xmlns="http://www.w3.org/2000/svg"
 width="512.000000pt" height="512.000000pt" viewBox="0 0 512.000000 512.000000"
 preserveAspectRatio="xMidYMid meet">

<g transform="translate(0.000000,512.000000) scale(0.100000,-0.100000)"
fill="#000000" stroke="none">
<path d="M3589 5021 c-20 -16 -25 -35 -39 -140 l-15 -122 -88 -35 c-57 -23
-92 -32 -100 -26 -7 5 -49 39 -95 75 -80 65 -119 80 -147 59 -5 -4 -63 -62
-127 -128 -75 -77 -118 -129 -118 -142 0 -11 34 -65 75 -119 l74 -99 -24 -49
c-13 -28 -27 -64 -31 -82 -3 -18 -11 -36 -18 -41 -6 -5 -59 -14 -117 -20 -58
-6 -113 -14 -123 -18 -37 -14 -46 -56 -46 -219 l0 -157 28 -27 c28 -29 32 -30
199 -47 l62 -6 17 -52 c9 -28 25 -68 36 -89 l19 -38 -59 -72 c-78 -96 -92
-118 -92 -141 0 -11 52 -72 127 -148 100 -101 133 -128 154 -128 18 0 57 23
118 70 49 38 93 70 97 70 4 0 46 -14 93 -32 47 -18 87 -32 87 -33 1 0 7 -49
14 -109 6 -60 16 -119 22 -130 23 -42 37 -45 205 -46 214 0 210 -3 229 165 7
66 13 121 14 123 0 1 6 2 13 2 6 0 46 15 88 33 l76 33 97 -73 c63 -47 106 -73
123 -73 20 0 54 28 145 117 65 65 121 128 124 140 10 38 -3 64 -71 151 l-66
82 35 93 34 92 119 13 c169 19 163 10 163 228 0 150 -2 175 -18 194 -19 24
-61 34 -185 45 -59 6 -80 12 -84 24 -3 9 -17 43 -30 76 -14 33 -27 67 -29 75
-3 9 24 54 65 107 102 131 102 128 -52 281 -95 93 -130 122 -150 122 -17 0
-58 -26 -127 -81 l-101 -81 -58 26 c-32 14 -73 29 -90 32 -19 4 -31 13 -31 23
-1 9 -7 64 -14 123 -18 153 -9 148 -216 148 -149 0 -170 -2 -191 -19z m338
-792 c68 -33 119 -84 155 -158 32 -65 33 -205 1 -273 -87 -190 -319 -254 -496
-137 -127 84 -176 264 -112 408 29 64 102 142 152 163 113 46 201 45 300 -3z"/>
<path d="M1323 4148 c-32 -15 -41 -46 -63 -212 -11 -82 -21 -150 -22 -151 -2
-1 -28 -10 -58 -19 -30 -10 -88 -33 -129 -52 -44 -20 -78 -31 -85 -26 -6 5
-56 45 -111 88 -128 102 -145 114 -169 114 -12 0 -82 -62 -178 -157 -168 -167
-177 -181 -141 -233 9 -14 51 -65 93 -115 41 -49 81 -98 89 -107 11 -15 8 -30
-27 -110 -22 -51 -46 -112 -52 -134 l-12 -41 -152 -18 c-161 -19 -202 -32
-211 -68 -3 -12 -4 -118 -3 -236 l3 -214 25 -18 c18 -13 67 -22 180 -34 85 -9
155 -17 155 -18 1 -1 12 -31 25 -67 12 -36 36 -91 52 -124 16 -32 27 -63 25
-70 -3 -6 -48 -64 -101 -129 -77 -95 -96 -125 -96 -151 0 -27 20 -53 151 -189
190 -198 171 -195 342 -57 68 55 129 100 134 100 6 0 48 -18 94 -39 46 -22
103 -45 127 -52 23 -7 42 -15 42 -19 0 -5 9 -75 20 -156 11 -82 20 -152 20
-156 0 -5 9 -17 20 -28 19 -19 33 -20 243 -20 284 0 262 -16 285 208 l15 159
56 18 c31 10 87 33 125 52 37 19 74 32 82 29 8 -3 67 -48 133 -101 164 -131
146 -134 338 58 136 135 153 156 153 186 0 27 -19 56 -105 163 l-105 129 27
52 c14 29 38 86 53 127 l28 75 43 7 c24 3 97 12 161 18 100 11 121 16 143 36
l25 23 0 215 c0 280 14 260 -209 290 l-163 21 -17 55 c-10 30 -34 90 -54 133
l-36 78 104 130 c76 93 105 137 105 156 0 23 -28 56 -157 181 -87 84 -168 155
-181 158 -27 7 -45 -4 -177 -109 -55 -44 -105 -84 -112 -89 -7 -6 -36 3 -80
25 -37 19 -93 42 -123 52 -30 10 -57 19 -59 22 -3 2 -13 76 -22 165 -23 222
-5 208 -277 207 -123 0 -216 -5 -229 -11z m336 -989 c226 -52 388 -288 352
-515 -13 -87 -67 -197 -124 -256 -214 -220 -559 -185 -727 74 -53 81 -74 165
-68 275 3 77 9 100 41 166 78 165 234 265 412 266 39 0 90 -4 114 -10z"/>
<path d="M3578 2594 c-33 -17 -41 -47 -58 -201 l-13 -112 -36 -12 c-20 -6 -67
-25 -104 -42 -47 -21 -73 -28 -82 -21 -8 5 -56 41 -107 81 -140 108 -124 110
-288 -53 -175 -172 -172 -160 -56 -311 l84 -109 -24 -44 c-13 -25 -31 -67 -40
-95 -9 -27 -21 -55 -28 -61 -6 -6 -72 -18 -146 -27 -114 -14 -138 -20 -152
-38 -16 -19 -18 -45 -18 -209 0 -104 3 -196 6 -205 11 -28 56 -42 174 -55 63
-7 122 -16 131 -21 9 -5 20 -21 24 -36 3 -15 21 -60 39 -99 l33 -71 -83 -108
c-116 -149 -118 -137 54 -308 92 -90 146 -137 160 -137 12 0 72 38 134 85 75
57 118 83 128 79 8 -4 56 -23 106 -42 l91 -35 12 -106 c7 -58 17 -123 22 -143
16 -64 30 -68 237 -68 240 0 224 -15 253 222 l11 97 51 17 c29 9 76 28 105 41
29 13 59 20 65 16 7 -4 51 -37 98 -74 95 -74 120 -89 145 -89 10 0 80 62 156
137 118 117 138 142 138 168 0 22 -22 58 -84 139 l-84 109 28 61 c15 33 34 80
41 104 14 48 8 46 159 62 117 13 156 24 170 51 13 23 13 385 0 408 -14 27 -31
32 -179 50 l-133 16 -28 75 c-15 41 -34 89 -43 105 l-15 31 84 109 c63 82 84
118 84 140 0 26 -21 51 -138 168 -92 91 -146 137 -160 137 -12 0 -70 -36 -128
-81 -58 -44 -111 -82 -118 -85 -6 -2 -34 6 -61 19 -28 13 -73 32 -101 41 l-52
17 -11 97 c-21 167 -23 176 -52 204 l-27 28 -174 0 c-133 -1 -179 -4 -200 -16z
m321 -870 c181 -58 289 -237 259 -429 -19 -126 -100 -233 -218 -289 -58 -28
-75 -31 -160 -31 -86 0 -101 3 -162 32 -85 40 -151 106 -191 191 -29 61 -32
76 -32 162 0 87 3 101 32 160 89 181 283 265 472 204z"/>
</g>
</svg>
