<svg version="1.2" xmlns="http://www.w3.org/2000/svg" viewBox="0 0 68 90" width="68" height="90">
	<title>css-file-svg</title>
	<style>
		.s0 { fill: #5f9ea0 } 
	</style>
	<g>
		<g>
			<path fill-rule="evenodd" class="s0" d="m67.8 84.7c0 2.9-2.4 5.3-5.3 5.3h-56.9c-2.9 0-5.3-2.4-5.3-5.3v-79.3c0-2.9 2.4-5.3 5.3-5.3h42c0.9 0 1.8 0.3 2.4 1l16.8 18c0.6 0.6 0.9 1.4 0.9 2.2zm-4 0v-62.9h-11.1c-3.2 0-5.8-2.6-5.8-5.8v-11.9h-41.3c-0.7 0-1.3 0.6-1.3 1.3v79.3c0 0.7 0.6 1.3 1.3 1.3h56.8c0.7 0 1.3-0.6 1.4-1.3z"/>
			<path class="s0" d="m27.5 67c-0.4-0.6-1-0.7-1.6-0.2-0.7 0.5-1.8 1.1-3.1 1.1-2.9 0-4.2-2.3-4.2-4.5 0-2.2 1.2-4.3 4.2-4.3 1.1 0 2.1 0.4 2.8 0.8 0.7 0.4 1.2 0.3 1.6-0.3l0.5-0.9c0.4-0.6 0.3-1.2-0.3-1.6-0.9-0.6-2.5-1.4-4.8-1.4-4.6 0-7.9 3.4-7.9 7.7 0 4.5 3 7.8 7.9 7.8 2.5 0 4.3-1 5.2-1.8 0.6-0.4 0.6-1 0.2-1.6z"/>
			<path class="s0" d="m34.8 60.1c0-0.6 0.5-1 1.6-1 1 0 1.7 0.4 2.4 0.7 0.6 0.3 1.2 0.4 1.6-0.4l0.5-1c0.3-0.6 0.3-1.1-0.4-1.6-0.7-0.5-2.3-1.1-4.1-1.1-3 0-5.4 1.8-5.4 4.6 0 4.7 6.6 4.4 6.6 6.5 0 0.6-0.5 1-1.6 1-1.3 0-2.2-0.7-2.7-0.9-0.7-0.4-1.2-0.3-1.6 0.3l-0.7 0.9c-0.5 0.8-0.2 1.2 0.2 1.6 0.8 0.6 2.7 1.5 4.8 1.5 3.4 0 5.3-2.2 5.3-4.7 0.1-4.7-6.5-4.2-6.5-6.4z"/>
			<path class="s0" d="m48.2 60.1c0-0.6 0.5-1 1.6-1 1 0 1.7 0.4 2.4 0.7 0.6 0.3 1.2 0.4 1.6-0.4l0.5-1c0.3-0.6 0.3-1.1-0.4-1.6-0.7-0.5-2.3-1.1-4.1-1.1-3 0-5.4 1.8-5.4 4.6 0 4.7 6.6 4.4 6.6 6.5 0 0.6-0.5 1-1.6 1-1.3 0-2.2-0.7-2.7-0.9-0.7-0.4-1.2-0.3-1.6 0.3l-0.7 0.9c-0.5 0.8-0.2 1.2 0.2 1.6 0.8 0.6 2.7 1.5 4.8 1.5 3.4 0 5.3-2.2 5.3-4.7 0.1-4.7-6.5-4.2-6.5-6.4z"/>
		</g>
	</g>
</svg>