<?xml version="1.0" standalone="no"?>
<!DOCTYPE svg PUBLIC "-//W3C//DTD SVG 20010904//EN"
 "http://www.w3.org/TR/2001/REC-SVG-20010904/DTD/svg10.dtd">
<svg version="1.0" xmlns="http://www.w3.org/2000/svg"
 width="512.000000pt" height="512.000000pt" viewBox="0 0 512.000000 512.000000"
 preserveAspectRatio="xMidYMid meet">

<g transform="translate(0.000000,512.000000) scale(0.100000,-0.100000)"
fill="#000000" stroke="none">
<path d="M1725 5113 c-38 -2 -146 -10 -240 -18 -791 -72 -1345 -290 -1462
-575 -17 -43 -18 -127 -18 -1960 l0 -1915 27 -57 c53 -114 169 -212 359 -302
406 -194 1069 -299 1784 -283 377 9 677 46 1017 124 l157 36 83 -41 c178 -86
317 -116 528 -115 138 1 167 4 272 31 541 140 909 629 885 1177 -13 302 -118
550 -322 764 -176 185 -384 299 -632 347 -104 21 -316 23 -413 5 -437 -81
-784 -382 -919 -800 -40 -122 -55 -218 -55 -356 0 -139 15 -234 55 -358 53
-163 144 -319 252 -434 34 -36 45 -54 36 -58 -27 -9 -295 -55 -409 -69 -715
-92 -1544 -30 -2065 154 -229 81 -391 186 -424 273 -7 18 -11 185 -11 478 l0
450 42 -26 c251 -156 677 -274 1198 -330 174 -19 677 -31 883 -20 127 6 152
10 179 29 57 38 62 115 11 162 l-27 25 -295 -7 c-418 -9 -794 17 -1108 77
-467 89 -809 241 -869 385 -11 27 -14 121 -14 479 0 245 3 445 6 445 3 0 19
-9 35 -20 51 -37 251 -128 359 -163 669 -221 1744 -255 2535 -81 259 58 482
138 642 233 l51 30 4 -104 c3 -93 5 -106 27 -129 30 -32 81 -43 122 -26 62 26
60 -22 57 997 l-3 928 -27 50 c-160 305 -771 513 -1653 565 -156 9 -469 11
-640 3z m755 -224 c608 -48 1117 -195 1297 -375 84 -84 80 -161 -13 -242 -377
-330 -1644 -477 -2632 -307 -534 93 -917 274 -917 435 0 183 476 382 1110 464
107 14 344 33 495 40 116 5 521 -4 660 -15z m-2128 -909 c647 -332 2045 -399
2973 -143 170 47 403 145 487 205 l28 19 0 -456 c0 -509 4 -482 -72 -551 -143
-132 -467 -249 -880 -319 -300 -51 -425 -59 -848 -60 -404 0 -505 6 -784 46
-520 75 -955 246 -1027 403 -17 38 -19 75 -19 489 l0 449 33 -21 c17 -12 67
-40 109 -61z m3770 -1864 c387 -74 677 -360 765 -751 21 -96 21 -288 -1 -389
-80 -370 -372 -662 -742 -742 -101 -22 -293 -22 -389 -1 -344 77 -609 312
-718 638 -38 114 -50 212 -44 351 19 440 326 797 768 893 84 18 269 19 361 1z"/>
<path d="M3998 1583 c-35 -22 -46 -49 -167 -416 -94 -284 -101 -310 -91 -342
16 -47 53 -75 102 -75 73 0 82 18 206 390 62 184 112 347 112 362 0 70 -101
120 -162 81z"/>
<path d="M3343 1358 c-189 -188 -189 -190 8 -383 116 -113 118 -115 164 -115
38 0 52 5 76 29 24 24 29 38 29 75 0 44 -4 50 -80 129 l-79 83 70 70 c85 83
105 121 89 170 -16 47 -54 74 -103 74 -38 0 -47 -7 -174 -132z"/>
<path d="M4321 1476 c-45 -25 -64 -91 -40 -139 6 -12 43 -55 82 -94 l71 -73
-82 -84 c-75 -77 -82 -87 -82 -124 0 -79 80 -133 146 -99 16 9 84 71 152 140
112 113 122 127 122 161 0 20 -6 49 -14 64 -17 32 -222 235 -253 251 -29 15
-72 13 -102 -3z"/>
</g>
</svg>
