<?xml version="1.0" standalone="no"?>
<!DOCTYPE svg PUBLIC "-//W3C//DTD SVG 20010904//EN"
 "http://www.w3.org/TR/2001/REC-SVG-20010904/DTD/svg10.dtd">
<svg version="1.0" xmlns="http://www.w3.org/2000/svg"
 width="512.000000pt" height="512.000000pt" viewBox="0 0 512.000000 512.000000"
 preserveAspectRatio="xMidYMid meet">

<g transform="translate(0.000000,512.000000) scale(0.100000,-0.100000)"
fill="#000000" stroke="none">
<path d="M2425 4619 c-501 -30 -970 -243 -1329 -603 -690 -691 -798 -1788
-256 -2596 117 -173 265 -338 414 -459 627 -510 1488 -610 2211 -257 666 325
1095 960 1156 1713 27 335 -44 712 -194 1026 -366 768 -1150 1229 -2002 1176z
m380 -210 c44 -6 83 -13 87 -15 4 -3 8 -48 8 -101 0 -76 -4 -100 -17 -115 -16
-18 -43 -25 -43 -10 0 4 -29 37 -63 75 -55 58 -68 67 -98 67 -32 0 -419 -123
-466 -148 -25 -14 -40 -51 -47 -121 -3 -29 -7 -55 -9 -58 -2 -2 -88 -26 -190
-53 -103 -27 -196 -54 -207 -60 -41 -22 -47 -55 -54 -290 -6 -174 -5 -232 5
-254 14 -29 55 -56 87 -56 11 0 133 27 271 60 139 33 259 60 267 60 12 0 333
-211 368 -241 6 -5 5 -18 -2 -34 l-12 -25 -517 0 c-476 0 -520 -2 -539 -18
-25 -20 -295 -357 -312 -389 -7 -12 -12 -33 -12 -47 0 -23 157 -473 180 -516
15 -28 25 -32 271 -111 123 -39 225 -72 227 -74 1 -1 29 -127 62 -279 l59
-277 145 -203 c80 -112 152 -206 161 -210 45 -17 87 -2 314 115 130 67 244
129 254 138 12 12 49 134 108 355 l89 337 170 220 c204 265 199 248 108 386
-35 54 -57 97 -52 102 55 49 226 171 234 166 5 -3 104 -113 220 -245 116 -132
219 -244 230 -250 39 -21 108 0 129 39 6 10 22 118 36 241 14 123 28 226 30
228 2 3 34 -14 70 -38 l65 -42 0 -147 c-1 -308 -63 -578 -195 -840 -462 -920
-1560 -1295 -2480 -846 -214 105 -376 223 -542 399 -108 114 -216 263 -207
285 3 9 42 120 85 247 67 194 78 235 70 258 -6 14 -107 190 -225 389 l-215
364 20 99 c28 139 90 323 148 441 106 217 218 370 393 538 326 314 706 479
1188 519 64 5 251 -3 345 -15z m459 -124 c500 -203 891 -621 1065 -1140 56
-164 55 -165 -26 -110 -74 49 -116 57 -158 29 -33 -22 -41 -54 -60 -239 -9
-88 -20 -170 -23 -182 -6 -18 -24 -1 -139 130 -225 258 -223 257 -270 257 -45
0 -32 9 -327 -220 -126 -98 -166 -142 -166 -182 0 -14 32 -71 103 -180 l37
-56 -151 -196 -150 -196 -85 -318 c-53 -199 -90 -321 -100 -329 -36 -27 -315
-164 -323 -159 -5 3 -51 66 -103 138 l-94 133 -59 280 c-32 154 -64 294 -72
312 -18 40 -33 46 -294 128 l-217 68 -66 180 c-36 99 -62 185 -58 192 4 6 52
69 107 138 l100 126 518 1 c436 0 522 2 547 15 20 10 43 44 84 124 61 119 71
172 39 209 -10 11 -133 97 -274 191 -170 113 -265 171 -282 171 -15 0 -119
-22 -233 -50 -114 -27 -210 -50 -215 -50 -5 0 -9 47 -9 103 l0 104 183 48
c100 26 194 54 209 62 38 19 52 48 58 123 l5 65 120 42 c66 23 129 42 140 42
13 -1 47 -32 93 -84 111 -128 134 -127 285 16 l87 84 0 119 0 119 32 -7 c18
-4 82 -26 142 -51z m-2433 -2051 l117 -197 -41 -118 c-23 -66 -44 -119 -47
-119 -17 0 -102 262 -129 397 -23 111 -37 252 -26 241 4 -4 61 -96 126 -204z"/>
</g>
</svg>
