<svg version="1.2" xmlns="http://www.w3.org/2000/svg" viewBox="0 0 68 90" width="68" height="90">
	<title>html-file-svg</title>
	<style>
		.s0 { fill: #5f9ea0 } 
	</style>
	<g>
		<g>
			<path fill-rule="evenodd" class="s0" d="m67.8 84.7c0 2.9-2.4 5.3-5.3 5.3h-56.9c-2.9 0-5.3-2.4-5.3-5.3v-79.3c0-2.9 2.4-5.3 5.3-5.3h42c0.9 0 1.8 0.3 2.4 1l16.8 18.1c0.6 0.6 0.9 1.4 0.9 2.2zm-4 0v-62.9h-11.1c-3.2 0-5.8-2.6-5.8-5.8v-11.9h-41.3c-0.7 0-1.3 0.6-1.3 1.3v79.3c0 0.7 0.6 1.3 1.3 1.3h56.8c0.7 0 1.3-0.6 1.4-1.3z"/>
			<path class="s0" d="m20 58.8h-1.1q-0.9 0-0.9 0.9v3.9h-4.4v-3.9q0-0.9-0.9-0.9h-1.1q-0.9 0-0.9 0.9v10.3q0 0.9 0.9 0.9h1.1q0.9 0 0.9-0.9v-3.8h4.4v3.8q0 0.9 0.9 0.9h1.1q0.9 0 0.9-0.9v-10.3q0-0.9-0.9-0.9z"/>
			<path class="s0" d="m32.8 58.8h-8.5q-0.9 0-0.9 0.9v0.7q0 0.9 0.9 0.9h2.8v8.7q0 0.9 0.9 0.9h1.1q0.9 0 0.9-0.9v-8.7h2.8q0.9 0 0.9-0.9v-0.7c0.1-0.6-0.3-0.9-0.9-0.9z"/>
			<path class="s0" d="m46.9 58.8h-1.5c-0.5 0-0.9 0.2-1.1 0.8l-1.5 4.4c-0.3 0.8-0.6 2-0.6 2 0 0-0.3-1.2-0.6-2l-1.6-4.5c-0.2-0.5-0.5-0.8-1.1-0.8h-1.5c-0.6 0-0.9 0.3-1 0.9l-0.8 10.4c-0.1 0.6 0.3 1 0.9 1h1.1c0.6 0 0.9-0.3 1-0.9l0.3-4.6c0.1-0.9 0-2 0-2 0 0 0.4 1.3 0.7 2l1 2.8c0.2 0.5 0.5 0.7 1.1 0.7h1c0.5 0 0.9-0.2 1.1-0.7l1-2.8c0.3-0.8 0.7-2 0.7-2 0 0-0.1 1.1 0 2l0.3 4.6c0.1 0.6 0.4 0.9 1 0.9h1.1c0.6 0 0.9-0.4 0.9-1l-0.8-10.3c-0.2-0.6-0.5-0.9-1.1-0.9z"/>
			<path class="s0" d="m58.9 68.4h-4v-8.7q0-0.9-0.9-0.9h-1.1q-0.9 0-0.9 0.9v10.3q0 0.9 0.9 0.9h6.1q0.9 0 0.9-0.9v-0.7c-0.1-0.6-0.4-0.9-1-0.9z"/>
		</g>
	</g>
</svg>