<svg version="1.2" xmlns="http://www.w3.org/2000/svg" viewBox="0 0 68 90" width="68" height="90">
	<title>js-file-svg</title>
	<style>
		.s0 { fill: #000000 } 
	</style>
	<g>
		<g>
			<path fill-rule="evenodd" class="s0" d="m67.8 84.7c0 2.9-2.4 5.3-5.3 5.3h-56.9c-2.9 0-5.3-2.4-5.3-5.3v-79.3c0-2.9 2.4-5.3 5.3-5.3h42c0.9 0 1.8 0.3 2.4 1l16.8 18.1c0.6 0.6 0.9 1.4 0.9 2.2zm-4 0v-62.9h-11.1c-3.2 0-5.8-2.6-5.8-5.8v-11.9h-41.3c-0.7 0-1.3 0.6-1.3 1.3v79.3c0 0.7 0.6 1.3 1.3 1.3h56.9c0.7 0 1.3-0.6 1.3-1.3z"/>
			<path class="s0" d="m31.4 55.9h-5.4q-1.2 0-1.2 1.2v0.8q0 1.2 1.2 1.2h2.9v7.2c0 1.1-0.5 1.6-1.3 1.6-0.9 0-1.3-0.8-1.4-1.5-0.1-0.8-0.4-1.1-1.1-1.1h-1.4q-1.2 0-1.2 1.2c0 3.1 2.5 4.8 5 4.8 2.5 0 5-1.6 5-4.9v-9.2c0.1-0.9-0.3-1.3-1.1-1.3z"/>
			<path class="s0" d="m40 60.1c0-0.6 0.5-1 1.6-1 1 0 1.7 0.4 2.4 0.7 0.6 0.3 1.2 0.4 1.6-0.4l0.5-1c0.3-0.6 0.3-1.1-0.4-1.6-0.7-0.5-2.3-1.1-4.1-1.1-3 0-5.4 1.8-5.4 4.6 0 4.7 6.6 4.4 6.6 6.5 0 0.6-0.5 1-1.6 1-1.3 0-2.2-0.7-2.7-0.9-0.7-0.4-1.2-0.3-1.6 0.3l-0.7 0.9c-0.5 0.8-0.2 1.2 0.2 1.6 0.8 0.6 2.7 1.5 4.8 1.5 3.4 0 5.3-2.2 5.3-4.7 0.1-4.7-6.5-4.2-6.5-6.4z"/>
		</g>
	</g>
</svg>