<?xml version="1.0" standalone="no"?>
<!DOCTYPE svg PUBLIC "-//W3C//DTD SVG 20010904//EN"
 "http://www.w3.org/TR/2001/REC-SVG-20010904/DTD/svg10.dtd">
<svg version="1.0" xmlns="http://www.w3.org/2000/svg"
 width="512.000000pt" height="512.000000pt" viewBox="0 0 512.000000 512.000000"
 preserveAspectRatio="xMidYMid meet">

<g transform="translate(0.000000,512.000000) scale(0.100000,-0.100000)"
fill="#000000" stroke="none">
<path d="M2290 4784 c-101 -36 -179 -116 -205 -209 -8 -27 -19 -113 -25 -190
-7 -77 -12 -140 -13 -140 -47 -15 -200 -76 -248 -101 l-66 -33 -119 101 c-146
124 -182 142 -289 143 -123 0 -157 -21 -352 -217 -191 -193 -207 -220 -207
-343 1 -107 19 -145 142 -289 l100 -118 -43 -91 c-24 -51 -54 -122 -66 -159
l-23 -67 -86 -6 c-160 -12 -241 -25 -285 -44 -57 -25 -124 -93 -155 -156 -25
-49 -25 -54 -25 -305 0 -251 0 -256 25 -305 31 -63 98 -131 155 -156 44 -19
125 -32 285 -44 l86 -6 23 -67 c12 -37 42 -108 66 -159 l43 -91 -101 -119
c-123 -145 -141 -181 -142 -288 0 -123 21 -157 217 -352 193 -191 220 -207
343 -207 107 1 145 19 289 142 l118 100 91 -43 c51 -24 122 -54 159 -66 l67
-23 6 -86 c12 -160 25 -241 44 -285 25 -57 93 -124 156 -155 49 -25 54 -25
305 -25 251 0 256 0 305 25 112 55 179 156 180 271 0 56 -4 70 -27 101 -76 99
-229 78 -273 -36 l-18 -46 -168 0 -168 0 -5 43 c-3 23 -11 110 -16 192 -6 83
-16 164 -21 182 -14 43 -69 90 -121 103 -145 37 -261 84 -389 157 -88 50 -151
57 -204 24 -24 -15 -182 -147 -295 -247 -14 -12 -32 2 -137 109 l-122 122 121
140 c149 173 158 187 158 249 0 40 -9 64 -49 135 -67 117 -114 236 -151 378
-13 51 -53 101 -95 118 -16 7 -100 18 -185 24 -85 7 -174 14 -198 17 l-42 5 0
169 0 169 43 5 c23 3 112 10 197 17 85 6 169 17 185 24 42 17 82 67 95 118 36
139 88 268 165 406 41 75 47 137 16 186 -10 17 -73 93 -139 170 l-121 140 122
122 c105 107 123 121 137 109 113 -100 271 -232 295 -247 55 -34 116 -26 214
30 117 67 236 114 379 151 52 13 107 60 121 103 5 18 15 100 21 182 5 83 13
169 16 192 l5 41 114 4 c123 3 144 11 189 72 29 39 29 133 0 172 -47 64 -63
69 -217 71 -110 2 -152 -1 -187 -13z"/>
<path d="M3265 4770 c-249 -134 -437 -374 -512 -658 -22 -84 -26 -118 -27
-252 0 -179 17 -267 81 -417 70 -161 196 -320 336 -422 l57 -42 0 -1072 c0
-718 4 -1093 11 -1133 17 -98 78 -210 155 -288 220 -219 573 -219 790 1 63 64
96 118 133 212 l26 66 3 1106 3 1106 80 63 c185 146 308 337 370 575 20 77 23
113 23 245 -1 133 -5 168 -27 252 -31 119 -89 243 -158 343 -69 100 -205 227
-310 290 -74 44 -90 50 -141 50 -61 0 -94 -17 -132 -69 -20 -26 -21 -43 -26
-404 l-5 -376 -117 -47 -118 -47 -117 47 -118 47 -5 376 c-5 361 -6 378 -26
404 -33 45 -70 67 -121 71 -40 4 -58 -1 -108 -27z m-48 -1005 c6 -11 22 -30
35 -42 30 -27 469 -203 508 -203 39 0 478 175 509 203 47 43 51 69 51 334 l1
248 24 -30 c36 -43 91 -160 112 -235 27 -100 24 -283 -6 -380 -30 -98 -80
-192 -139 -262 -56 -67 -90 -96 -191 -163 -130 -87 -115 70 -121 -1263 -6
-1306 2 -1193 -86 -1271 -93 -81 -215 -81 -308 0 -88 78 -80 -35 -86 1271 -6
1333 9 1176 -121 1263 -101 67 -135 96 -191 163 -199 237 -221 591 -52 847
l39 60 5 -260 c3 -170 9 -267 17 -280z"/>
<path d="M2315 3653 c-352 -75 -663 -341 -794 -678 -117 -298 -106 -607 30
-894 84 -177 205 -322 359 -430 285 -200 618 -259 950 -169 98 26 134 49 159
102 26 53 26 89 1 140 -41 84 -111 102 -245 66 -279 -74 -572 2 -774 202 -106
105 -174 220 -217 368 -25 89 -26 307 0 400 77 285 311 513 595 579 122 28
171 71 178 158 5 65 -26 120 -87 151 -51 25 -60 26 -155 5z"/>
</g>
</svg>
