<?xml version="1.0" standalone="no"?>
<!DOCTYPE svg PUBLIC "-//W3C//DTD SVG 20010904//EN"
 "http://www.w3.org/TR/2001/REC-SVG-20010904/DTD/svg10.dtd">
<svg version="1.0" xmlns="http://www.w3.org/2000/svg"
 width="512.000000pt" height="512.000000pt" viewBox="0 0 512.000000 512.000000"
 preserveAspectRatio="xMidYMid meet">

<g transform="translate(0.000000,512.000000) scale(0.100000,-0.100000)"
fill="#000000" stroke="none">
<path d="M105 5106 c-37 -17 -80 -62 -94 -99 -15 -40 -15 -4854 0 -4894 5 -15
22 -41 37 -57 51 -54 66 -56 379 -56 323 0 346 5 394 71 l24 34 2 2445 3 2445
-23 39 c-14 25 -39 48 -66 63 -43 23 -50 23 -335 23 -221 -1 -298 -4 -321 -14z
m575 -2546 l0 -2390 -255 0 -255 0 0 84 0 84 60 4 c45 3 66 10 85 28 34 32 34
79 -1 114 -23 22 -35 26 -85 26 l-59 0 0 130 0 130 59 0 c50 0 62 4 85 26 35
35 35 82 1 114 -19 18 -40 25 -85 28 l-60 4 0 124 0 124 78 0 c110 0 150 13
168 55 16 40 5 83 -29 105 -14 9 -59 16 -119 18 l-98 4 0 124 0 124 54 0 c44
0 60 5 85 26 41 34 42 80 5 118 -23 22 -35 26 -85 26 l-59 0 0 130 0 130 60 0
c53 0 64 3 85 26 31 34 32 75 2 110 -20 23 -34 28 -85 32 l-62 4 0 124 0 124
78 0 c110 0 150 13 168 55 16 40 5 83 -29 105 -14 9 -59 16 -119 18 l-98 4 0
124 0 124 54 0 c44 0 60 5 85 26 41 34 42 80 5 118 -23 22 -35 26 -85 26 l-59
0 0 130 0 130 60 0 c51 0 65 4 85 25 32 31 32 75 2 111 -20 23 -34 28 -85 32
l-62 4 0 124 0 124 84 0 c45 0 98 5 116 11 62 22 73 118 17 147 -12 7 -65 13
-117 14 l-95 3 -3 128 -3 127 55 0 c44 0 60 5 85 26 41 34 42 80 5 118 -23 22
-35 26 -85 26 l-59 0 0 130 0 130 60 0 c51 0 65 4 85 25 32 31 32 75 2 111
-20 23 -34 28 -85 32 l-62 4 0 84 0 84 255 0 255 0 0 -2390z"/>
<path d="M2407 5111 c-31 -5 -55 -15 -71 -31 -12 -14 -51 -92 -86 -175 -35
-82 -68 -155 -74 -161 -6 -6 -45 -26 -86 -43 l-76 -33 -164 66 c-90 36 -179
66 -197 66 -25 0 -48 -13 -100 -59 -123 -106 -213 -212 -213 -252 0 -14 30
-98 66 -188 42 -106 63 -172 60 -186 -3 -13 -19 -52 -35 -87 l-29 -65 -158
-67 c-88 -38 -170 -78 -183 -91 -20 -20 -25 -37 -32 -117 -10 -114 -1 -274 17
-309 13 -26 83 -61 293 -148 59 -24 66 -30 86 -76 54 -123 56 -104 -18 -289
-37 -91 -67 -177 -67 -191 0 -14 20 -47 48 -82 74 -88 220 -221 251 -228 21
-4 73 12 201 63 l173 69 81 -33 81 -33 75 -172 c52 -118 83 -177 100 -188 35
-24 385 -24 420 0 17 11 48 70 100 188 l75 173 60 24 c33 14 69 29 80 33 15 7
66 -10 194 -61 129 -51 181 -67 202 -63 31 7 177 140 251 228 28 35 48 68 48
82 0 14 -30 100 -67 191 -74 185 -72 166 -18 289 21 49 24 51 116 89 224 93
256 111 267 147 15 49 21 190 13 296 -6 75 -12 97 -29 116 -12 12 -95 54 -186
92 l-164 70 -33 83 -32 83 67 168 c36 93 66 179 66 191 0 39 -92 147 -213 251
-52 46 -75 59 -100 59 -18 0 -107 -30 -197 -66 l-164 -66 -76 33 c-41 17 -80
37 -86 43 -6 6 -39 79 -74 161 -35 83 -73 161 -86 174 -16 17 -39 27 -76 32
-64 9 -235 9 -301 0z m251 -169 c7 -5 44 -80 82 -168 72 -162 90 -188 145
-200 17 -4 68 -24 114 -45 46 -22 92 -39 102 -39 11 0 92 29 180 65 118 47
166 62 179 55 9 -5 44 -38 78 -74 l61 -65 -65 -161 c-35 -88 -64 -172 -64
-187 0 -16 13 -55 28 -88 16 -33 39 -88 51 -122 13 -34 29 -67 36 -73 7 -6 85
-42 172 -79 l158 -68 5 -54 c3 -30 4 -79 2 -109 l-4 -55 -155 -65 c-85 -36
-163 -74 -174 -85 -25 -25 -110 -228 -116 -275 -3 -26 12 -75 61 -195 l65
-160 -72 -72 c-39 -40 -76 -73 -82 -73 -6 0 -76 26 -156 58 -200 81 -186 79
-287 34 -48 -22 -108 -47 -134 -56 -45 -17 -50 -22 -86 -99 -21 -45 -56 -124
-77 -174 l-39 -93 -106 0 -106 0 -38 93 c-22 50 -56 129 -77 174 -39 81 -39
82 -96 103 -32 12 -93 37 -135 56 -91 41 -79 42 -277 -38 -80 -32 -150 -58
-156 -58 -6 0 -43 33 -82 73 l-72 72 65 160 c49 121 64 169 61 195 -6 48 -91
250 -115 275 -11 11 -90 49 -175 85 l-155 65 -4 55 c-2 30 -1 79 2 109 l5 54
158 68 c87 37 165 73 172 79 8 6 22 33 31 58 9 26 32 81 50 123 19 42 34 88
34 103 0 14 -29 98 -64 185 l-64 160 50 55 c27 30 62 64 77 75 l28 20 162 -64
c88 -36 169 -65 180 -65 10 0 56 17 102 39 46 21 98 41 114 45 55 12 73 38
145 201 39 87 76 163 83 167 16 10 178 10 195 0z"/>
<path d="M2459 4430 c-345 -41 -622 -281 -721 -627 -19 -65 -22 -102 -22 -218
1 -122 4 -151 28 -230 73 -241 222 -418 441 -524 149 -72 204 -85 370 -86 169
0 237 15 380 86 276 136 451 399 471 709 16 247 -79 485 -263 661 -134 128
-304 207 -488 229 -99 11 -101 11 -196 0z m266 -186 c217 -51 412 -233 485
-454 30 -91 37 -242 17 -342 -55 -263 -252 -465 -517 -529 -75 -18 -231 -16
-310 4 -226 58 -414 233 -488 455 -23 68 -26 93 -26 207 0 119 3 137 30 216
120 340 459 526 809 443z"/>
<path d="M2455 3996 c-207 -51 -341 -254 -312 -471 30 -229 259 -398 484 -356
143 26 250 107 314 236 33 67 34 74 34 180 0 108 -1 113 -38 187 -89 182 -285
273 -482 224z m223 -190 c84 -43 133 -125 133 -224 0 -67 -19 -117 -63 -167
-51 -58 -101 -80 -188 -80 -87 0 -137 22 -188 80 -44 50 -63 100 -63 167 0
115 64 204 176 246 46 18 134 8 193 -22z"/>
<path d="M4650 5105 c-21 -11 -55 -88 -203 -457 l-177 -443 0 -1926 0 -1925
21 -62 c66 -194 267 -317 465 -284 180 30 320 165 354 342 6 34 10 717 10
1949 l0 1896 -175 440 c-125 312 -183 447 -201 463 -28 25 -57 27 -94 7z m48
-493 c-39 -2 -72 -1 -75 1 -2 3 13 46 33 97 l37 93 38 -94 37 -94 -70 -3z
m171 -250 c18 -46 31 -85 29 -88 -3 -2 -98 -3 -211 -2 l-205 3 34 85 34 85
143 0 144 0 32 -83z m79 -1714 l-3 -1453 -252 -3 -253 -2 0 1455 0 1455 255 0
255 0 -2 -1452z m2 -1753 l0 -125 -255 0 -255 0 0 125 0 125 255 0 255 0 0
-125z m0 -393 c0 -126 -19 -190 -72 -248 -98 -107 -262 -108 -367 -3 -57 57
-65 82 -69 222 l-4 127 256 0 256 0 0 -98z"/>
<path d="M1960 2041 c-84 -10 -95 -20 -126 -115 l-28 -85 -50 -19 c-28 -11
-66 -26 -83 -33 -30 -12 -38 -11 -112 25 -56 28 -86 37 -104 32 -52 -13 -220
-179 -233 -231 -4 -15 8 -49 35 -102 l40 -81 -32 -73 c-41 -95 -42 -96 -72
-103 -81 -20 -136 -49 -151 -78 -18 -35 -22 -255 -5 -300 12 -33 19 -37 110
-69 41 -14 78 -32 82 -40 4 -8 21 -45 38 -82 l31 -68 -41 -81 c-29 -58 -39
-88 -34 -106 15 -60 195 -232 243 -232 14 0 60 16 102 35 l75 35 79 -33 79
-33 28 -80 c15 -43 37 -86 48 -95 45 -37 304 -36 341 1 10 10 30 54 44 98 21
62 33 83 49 88 12 3 48 18 80 32 l59 26 74 -37 c41 -20 87 -37 102 -37 33 0
115 66 191 153 62 71 64 95 17 194 l-34 71 31 80 32 81 79 27 c43 15 87 35 96
44 24 24 34 108 28 227 -6 115 -15 127 -124 163 l-76 26 -34 82 -34 82 35 70
c56 111 53 123 -62 240 -60 60 -109 101 -127 106 -23 5 -45 -1 -103 -30 -40
-20 -79 -36 -85 -36 -6 0 -47 14 -89 32 l-78 32 -28 79 c-19 54 -36 86 -53 98
-29 20 -161 31 -250 20z m165 -241 c30 -90 43 -103 125 -127 30 -8 85 -31 121
-49 36 -19 72 -34 80 -34 8 0 48 16 88 35 l74 36 38 -37 38 -37 -35 -68 c-19
-38 -34 -80 -34 -94 0 -14 13 -51 29 -83 15 -31 38 -88 51 -125 25 -78 42 -92
140 -122 l60 -18 0 -53 0 -52 -79 -27 c-87 -29 -100 -41 -124 -121 -8 -28 -29
-78 -46 -112 -39 -77 -39 -107 0 -184 27 -53 29 -64 18 -84 -7 -13 -23 -31
-37 -40 -23 -15 -28 -14 -103 21 l-78 37 -88 -40 c-49 -22 -112 -48 -141 -57
-58 -18 -72 -38 -107 -143 l-17 -53 -51 3 -52 3 -26 74 c-29 83 -49 104 -121
126 -27 8 -81 30 -120 50 -79 39 -81 39 -181 -7 l-68 -32 -35 35 -35 35 36 74
c19 41 35 83 35 92 0 10 -15 49 -34 86 -19 38 -42 94 -51 125 -19 67 -42 88
-129 117 -69 23 -78 35 -68 99 4 27 10 32 71 52 85 28 107 49 131 125 10 34
33 89 49 123 17 33 31 69 31 78 0 10 -16 52 -35 93 l-36 74 35 35 36 35 75
-37 c41 -20 82 -37 90 -37 9 0 46 15 83 34 37 18 92 41 122 51 74 24 95 46
121 124 12 36 24 69 26 74 2 4 26 7 53 7 l48 0 27 -80z"/>
<path d="M1971 1529 c-83 -11 -191 -63 -260 -125 -260 -234 -219 -644 82 -820
67 -39 186 -74 251 -74 190 1 380 122 462 294 176 370 -125 778 -535 725z
m224 -199 c67 -32 131 -99 163 -168 37 -81 38 -193 0 -273 -102 -221 -377
-273 -549 -105 -92 90 -124 239 -78 361 29 79 112 163 189 193 78 31 204 27
275 -8z"/>
<path d="M2012 1100 c-31 -13 -55 -71 -43 -104 22 -57 94 -74 136 -31 42 41
31 105 -22 133 -25 14 -39 14 -71 2z"/>
</g>
</svg>
