<?xml version="1.0" standalone="no"?>
<!DOCTYPE svg PUBLIC "-//W3C//DTD SVG 20010904//EN"
 "http://www.w3.org/TR/2001/REC-SVG-20010904/DTD/svg10.dtd">
<svg version="1.0" xmlns="http://www.w3.org/2000/svg"
 width="512.000000pt" height="512.000000pt" viewBox="0 0 512.000000 512.000000"
 preserveAspectRatio="xMidYMid meet">

<g transform="translate(0.000000,512.000000) scale(0.100000,-0.100000)"
fill="#000000" stroke="none">
<path d="M3017 4438 c-61 -161 -1377 -3784 -1377 -3790 0 -4 101 -8 224 -8
l223 0 16 43 c62 163 1377 3783 1377 3789 0 4 -101 8 -224 8 l-223 0 -16 -42z"/>
<path d="M597 3162 l-597 -597 598 -597 c328 -329 601 -601 605 -605 4 -4 75
60 157 142 l150 150 -452 452 -453 453 453 453 452 452 -148 148 c-81 81 -152
147 -157 147 -6 0 -279 -269 -608 -598z"/>
<path d="M3757 3613 l-147 -148 452 -452 453 -453 -453 -453 -452 -452 150
-150 c82 -82 153 -146 157 -142 4 4 277 276 605 605 l598 597 -597 597 c-329
329 -602 598 -608 598 -6 0 -76 -66 -158 -147z"/>
</g>
</svg>
