<?xml version="1.0" standalone="no"?>
<!DOCTYPE svg PUBLIC "-//W3C//DTD SVG 20010904//EN"
 "http://www.w3.org/TR/2001/REC-SVG-20010904/DTD/svg10.dtd">
<svg version="1.0" xmlns="http://www.w3.org/2000/svg"
 width="512.000000pt" height="512.000000pt" viewBox="0 0 512.000000 512.000000"
 preserveAspectRatio="xMidYMid meet">

<g transform="translate(0.000000,512.000000) scale(0.100000,-0.100000)"
fill="#000000" stroke="none">
<path d="M2323 5106 c-62 -28 -68 -49 -71 -255 -4 -225 1 -265 37 -302 55 -54
146 -44 184 20 25 42 25 449 1 490 -30 51 -96 71 -151 47z"/>
<path d="M1190 4692 c-48 -23 -75 -76 -66 -127 6 -32 30 -61 134 -168 152
-155 193 -187 239 -187 46 0 89 27 108 66 19 40 19 67 1 102 -22 41 -297 309
-329 322 -38 14 -46 13 -87 -8z"/>
<path d="M3354 4690 c-49 -24 -299 -275 -314 -314 -31 -83 25 -166 113 -166
46 0 87 32 239 187 139 143 153 168 125 236 -28 67 -96 91 -163 57z"/>
<path d="M2253 4175 c-152 -41 -268 -149 -326 -303 -22 -57 -22 -62 -27 -974
l-5 -917 -340 146 c-220 94 -361 149 -401 156 -150 26 -328 -55 -410 -185 -81
-128 -85 -305 -8 -441 32 -58 72 -96 672 -627 l491 -435 1 -240 c1 -158 5
-252 13 -274 32 -91 162 -104 210 -21 15 25 17 66 17 323 0 163 -3 303 -6 312
-4 9 -272 253 -596 542 -443 395 -594 534 -605 561 -34 82 3 188 80 229 72 38
99 30 554 -166 466 -200 478 -203 535 -152 l33 29 5 1019 c4 812 8 1024 18
1048 25 55 64 97 116 121 87 41 179 28 247 -33 79 -71 73 -22 79 -748 6 -733
1 -689 83 -719 23 -8 219 -43 435 -76 216 -34 420 -70 454 -82 249 -81 452
-265 558 -504 89 -202 91 -502 5 -760 -37 -111 -69 -179 -276 -575 -146 -279
-157 -311 -125 -367 18 -33 66 -62 101 -62 76 0 87 17 375 585 175 343 216
481 227 751 6 168 -4 267 -43 401 -90 310 -329 581 -630 716 -117 52 -199 71
-558 127 -176 28 -331 52 -343 55 l-23 5 0 573 c0 628 -1 639 -60 742 -35 62
-110 137 -170 172 -99 57 -248 77 -357 48z"/>
<path d="M994 3630 c-57 -23 -85 -100 -57 -158 32 -65 59 -72 286 -72 208 0
243 6 280 47 27 31 32 84 12 126 -29 61 -55 67 -292 66 -114 0 -218 -4 -229
-9z"/>
<path d="M3189 3625 c-38 -21 -59 -59 -59 -108 0 -49 28 -89 75 -107 15 -6
116 -10 227 -10 221 0 250 6 281 59 34 57 13 137 -43 166 -41 21 -442 21 -481
0z"/>
</g>
</svg>
