<svg version="1.2" xmlns="http://www.w3.org/2000/svg" viewBox="0 0 68 90" width="68" height="90">
	<title>php-file-svg</title>
	<style>
		.s0 { fill: #5f9ea0 } 
	</style>
	<g>
		<g>
			<path fill-rule="evenodd" class="s0" d="m67.8 84.7c0 2.9-2.4 5.3-5.3 5.3h-56.9c-2.9 0-5.3-2.4-5.3-5.3v-79.3c0-2.9 2.4-5.3 5.3-5.3h42c0.9 0 1.8 0.3 2.4 1l16.8 18c0.6 0.6 0.9 1.4 0.9 2.2zm-4 0v-62.9h-11.1c-3.2 0-5.8-2.6-5.8-5.8v-11.9h-41.3c-0.7 0-1.3 0.6-1.3 1.3v79.3c0 0.7 0.6 1.3 1.3 1.3h56.8c0.7 0 1.3-0.6 1.4-1.3z"/>
			<path fill-rule="evenodd" class="s0" d="m24.5 61.1c0 3-2 5.2-4.9 5.2h-2.6v3.5q0 1.2-1.2 1.2h-1.4q-1.2 0-1.2-1.2v-12.7q0-1.2 1.2-1.2h5.1c2.9 0 5 2.2 5 5.2zm-3.9-0.1c0-1.2-0.6-2-1.8-2h-1.9v4.1h1.8c1.3 0 1.9-0.9 1.9-2.1z"/>
			<path class="s0" d="m39.3 55.9h-1.4q-1.2 0-1.2 1.2v4.9h-5.5v-4.9q0-1.2-1.2-1.2h-1.4q-1.2 0-1.2 1.2v12.7q0 1.2 1.2 1.2h1.4q1.2 0 1.2-1.2v-4.7h5.5v4.7q0 1.2 1.2 1.2h1.4q1.2 0 1.2-1.2v-12.7q-0.2-1.2-1.2-1.2z"/>
			<path fill-rule="evenodd" class="s0" d="m56.1 61.1c0 3-2 5.2-4.9 5.2h-2.6v3.5q0 1.2-1.2 1.2h-1.4q-1.2 0-1.2-1.2v-12.7q0-1.2 1.2-1.2h5.1c2.9 0 5 2.2 5 5.2zm-3.9-0.1c0-1.2-0.6-2-1.8-2h-1.9v4.1h1.8c1.3 0 1.9-0.9 1.9-2.1z"/>
		</g>
	</g>
</svg>