<?xml version="1.0" standalone="no"?>
<!DOCTYPE svg PUBLIC "-//W3C//DTD SVG 20010904//EN"
 "http://www.w3.org/TR/2001/REC-SVG-20010904/DTD/svg10.dtd">
<svg version="1.0" xmlns="http://www.w3.org/2000/svg"
 width="512.000000pt" height="512.000000pt" viewBox="0 0 512.000000 512.000000"
 preserveAspectRatio="xMidYMid meet">

<g transform="translate(0.000000,512.000000) scale(0.100000,-0.100000)"
fill="#000000" stroke="none">
<path d="M2877 3566 c-488 -854 -887 -1556 -887 -1558 0 -3 256 -455 570
-1004 l569 -999 600 -3 599 -2 -571 1002 c-315 551 -571 1006 -570 1009 3 8
1724 3026 1755 3077 l20 32 -599 0 -599 0 -887 -1554z"/>
<path d="M370 4155 c0 -3 142 -256 317 -562 174 -307 318 -565 320 -574 3 -10
-104 -196 -253 -440 -141 -233 -333 -549 -425 -702 l-169 -277 564 0 564 0
424 697 c232 384 423 705 423 714 0 9 -144 271 -320 582 l-320 566 -562 1
c-310 0 -563 -2 -563 -5z"/>
</g>
</svg>
